<?xml version="1.0" standalone="no"?>
<!DOCTYPE svg PUBLIC "-//W3C//DTD SVG 1.1//EN" "http://www.w3.org/Graphics/SVG/1.1/DTD/svg11.dtd">
<svg xmlns="http://www.w3.org/2000/svg" version="1.1" width="2182" height="1512" viewBox="0 0 2182 1512">
<path d="M0 0 C50.91450409 -0.36620093 101.82887515 -0.64814293 152.74443709 -0.81704527 C158.75508261 -0.83705664 164.76572554 -0.85776579 170.77636719 -0.87890625 C171.97298061 -0.88310322 173.16959403 -0.88730018 174.40246846 -0.89162433 C193.77952911 -0.96125104 213.15583048 -1.08740593 232.53244065 -1.23444474 C252.41387973 -1.38405641 272.29492111 -1.47293727 292.17690003 -1.50541592 C304.44623792 -1.52737382 316.71342986 -1.59672302 328.98210712 -1.72666347 C337.3946674 -1.81122548 345.80611805 -1.83680627 354.21907251 -1.81602204 C359.07432187 -1.80576887 363.92582231 -1.82149794 368.78040504 -1.9072876 C373.22886567 -1.9853255 377.67107077 -1.98901343 382.11982323 -1.93438232 C383.7257697 -1.92763555 385.33211067 -1.94783051 386.93728338 -1.99813092 C391.9608634 -2.14635683 396.27629662 -1.95006279 401 0 C405.04450052 3.90790404 407.52161122 8.89247179 409.95030655 13.90055001 C411.66265487 17.32534957 413.68208094 20.55832796 415.67578125 23.82421875 C416.4435574 25.11982138 417.20943346 26.41655358 417.97265625 27.71484375 C424.05124539 38.03741197 430.14555631 48.34404369 436.5 58.5 C442.31035409 67.79244905 447.90038232 77.20891682 453.47949219 86.64111328 C459.09373784 96.13101385 464.75962741 105.58586991 470.5 115 C476.98360073 125.63308238 483.36477646 136.32367244 489.70800781 147.04101562 C495.24705071 156.39684031 500.83996139 165.71690012 506.5 175 C512.98326787 185.63328845 519.36477342 196.3236673 525.70800781 207.04101562 C531.92475302 217.54152616 538.22428708 227.98789112 544.57714844 238.40649414 C550.03941578 247.37496386 555.40397336 256.39936044 560.75 265.4375 C565.91952803 274.17675781 571.11676372 282.88993966 576.5 291.5 C582.31002009 300.79266727 587.90037584 310.20890586 593.47949219 319.64111328 C599.09373784 329.13101385 604.75962741 338.58586991 610.5 348 C616.98360073 358.63308238 623.36477646 369.32367244 629.70800781 380.04101562 C635.24705071 389.39684031 640.83996139 398.71690012 646.5 408 C652.98326787 418.63328845 659.36477342 429.3236673 665.70800781 440.04101562 C671.92475302 450.54152616 678.22428708 460.98789112 684.57714844 471.40649414 C690.03941578 480.37496386 695.40397336 489.39936044 700.75 498.4375 C705.91952803 507.17675781 711.11676372 515.88993966 716.5 524.5 C722.31002009 533.79266727 727.90037584 543.20890586 733.47949219 552.64111328 C739.09373784 562.13101385 744.75962741 571.58586991 750.5 581 C756.57197273 590.95801392 762.55921918 600.96318735 768.5 611 C774.67420452 621.42960588 780.89195315 631.83063034 787.1875 642.1875 C787.8578125 643.29029297 788.528125 644.39308594 789.21875 645.52929688 C789.86199219 646.58568359 790.50523437 647.64207031 791.16796875 648.73046875 C791.78849121 649.75575684 792.40901367 650.78104492 793.04833984 651.83740234 C794.43677848 654.08731905 795.8463807 656.30318515 797.29931641 658.51025391 C797.863601 659.38282585 797.863601 659.38282585 798.43928528 660.27302551 C799.49017589 661.89475533 800.55581203 663.5069023 801.62231445 665.1184082 C803 668 803 668 802.91674805 670.51245117 C801.81467984 673.50285675 800.41469069 676.07310216 798.78125 678.8125 C798.28709595 679.64847717 798.28709595 679.64847717 797.78295898 680.50134277 C796.69521501 682.33822206 795.59757156 684.16897902 794.5 686 C793.72905396 687.29837493 792.95888474 688.5972114 792.18945312 689.89648438 C790.59024578 692.59554968 788.98771254 695.29259732 787.3828125 697.98828125 C784.07675234 703.54701318 780.8115085 709.12954019 777.54611206 714.71221924 C775.78411826 717.72342496 774.0187654 720.7326606 772.25390625 723.7421875 C769.76338623 727.99017233 767.27429467 732.23898951 764.78686523 736.48878479 C763.00418962 739.53445116 761.2209624 742.5797943 759.4375 745.625 C758.91014252 746.52552597 758.91014252 746.52552597 758.37213135 747.44424438 C753.23715231 756.21044403 748.06553727 764.95405462 742.875 773.6875 C737.66063376 782.46152664 732.51860428 791.27316753 727.4375 800.125 C721.94635685 809.69098281 716.32237365 819.16748501 710.62255859 828.61035156 C705.53753448 837.05495835 700.6012973 845.57935533 695.6953125 854.12890625 C690.54046294 863.09898749 685.27344068 871.99909824 679.98291016 880.88964844 C675.40322002 888.59847832 670.90020464 896.34794359 666.4375 904.125 C660.94650807 913.6910677 655.3223716 923.16748841 649.62255859 932.61035156 C644.53837568 941.05356138 639.6033225 949.57674795 634.69750977 958.12451172 C629.52597634 967.12240146 624.24922802 976.05485126 618.94555664 984.9753418 C612.22939039 996.27767358 605.60552303 1007.63268302 599 1019 C595.15790934 1017.71930311 594.83714126 1016.46941078 592.8828125 1012.98828125 C592.28291504 1011.93213623 591.68301758 1010.87599121 591.06494141 1009.7878418 C590.42476074 1008.640979 589.78458008 1007.49411621 589.125 1006.3125 C588.10742267 1004.5144265 587.08648599 1002.71828617 586.06552124 1000.9221344 C585.37323058 999.70353248 584.68201544 998.48431895 583.99185181 997.26451111 C580.93572065 991.8655398 577.79578526 986.51968212 574.625 981.1875 C569.64219338 972.78508995 564.68769737 964.36646612 559.75 955.9375 C559.39246643 955.32723969 559.03493286 954.71697937 558.66656494 954.08822632 C556.84063579 950.97154708 555.01496894 947.85471432 553.18945312 944.73779297 C549.98070463 939.25942013 546.7695165 933.78247753 543.55847168 928.30545044 C541.78887734 925.2870278 540.01944712 922.26850895 538.25 919.25 C537.54166745 918.04166621 536.83333412 916.83333287 536.125 915.625 C523.375 893.875 510.625 872.125 497.875 850.375 C497.52438004 849.77688507 497.17376007 849.17877014 496.81251526 848.56253052 C496.10412584 847.35409852 495.39574165 846.14566346 494.68736267 844.93722534 C492.91743021 841.91787646 491.14740728 838.89858069 489.37719727 835.87939453 C486.17885458 830.42425006 482.98117527 824.96872228 479.78686523 819.51121521 C478.00418962 816.46554884 476.2209624 813.4202057 474.4375 810.375 C474.08592834 809.77464935 473.73435669 809.17429871 473.37213135 808.55575562 C468.23715231 799.78955597 463.06553727 791.04594538 457.875 782.3125 C452.66063376 773.53847336 447.51860428 764.72683247 442.4375 755.875 C437.54956517 747.35985129 432.57378194 738.90571936 427.5 730.5 C421.7796732 721.0231517 416.20457622 711.47196546 410.6953125 701.87109375 C406.19563848 694.04109966 401.61814992 686.26063829 397 678.5 C391.74212523 669.66432664 386.55480249 660.79280956 381.4375 651.875 C376.54969987 643.35977587 371.57378005 634.90571624 366.5 626.5 C360.78051563 617.02454735 355.2066796 607.47452619 349.69750977 597.87548828 C345.17347491 590.00417364 340.5762675 582.17920173 335.9375 574.375 C330.3670435 565.0033369 324.83760441 555.60962038 319.35253906 546.18774414 C314.81146011 538.38779578 310.25350381 530.59787122 305.6875 522.8125 C305.33164825 522.20569397 304.97579651 521.59888794 304.60916138 520.97369385 C302.79737162 517.8842296 300.98540782 514.79486748 299.17333984 511.70556641 C295.96765731 506.24015517 292.76362141 500.77377869 289.55947876 495.3074646 C287.78972162 492.28826922 286.01985522 489.26913789 284.25 486.25 C283.54166614 485.04166697 282.83333281 483.83333364 282.125 482.625 C281.774375 482.026875 281.42375 481.42875 281.0625 480.8125 C268.66666667 459.66666667 256.27083333 438.52083333 243.875 417.375 C243.52438004 416.77688507 243.17376007 416.17877014 242.81251526 415.56253052 C242.10412584 414.35409852 241.39574165 413.14566346 240.68736267 411.93722534 C238.91743021 408.91787646 237.14740728 405.89858069 235.37719727 402.87939453 C232.17885458 397.42425006 228.98117527 391.96872228 225.78686523 386.51121521 C224.00418962 383.46554884 222.2209624 380.4202057 220.4375 377.375 C220.08592834 376.77464935 219.73435669 376.17429871 219.37213135 375.55575562 C214.23715189 366.78955525 209.06543618 358.04600602 203.875 349.3125 C197.97970914 339.39032764 192.18079523 329.41640858 186.42871094 319.41064453 C182.02138749 311.75062819 177.55470255 304.12836945 173.04736328 296.52685547 C168.56786662 288.97066972 164.12451257 281.39366545 159.6875 273.8125 C154.11581215 264.29292164 148.51117382 254.79408777 142.875 245.3125 C137.66055849 236.53851873 132.5186036 227.72683128 127.4375 218.875 C122.54956517 210.35985129 117.57378194 201.90571936 112.5 193.5 C106.7796732 184.0231517 101.20457622 174.47196546 95.6953125 164.87109375 C91.19563848 157.04109966 86.61814992 149.26063829 82 141.5 C76.74212523 132.66432664 71.55480249 123.79280956 66.4375 114.875 C61.54969987 106.35977587 56.57378005 97.90571624 51.5 89.5 C45.78135808 80.02594303 40.2087846 70.47708584 34.69970703 60.87988281 C30.15126963 52.96718854 25.53409048 45.09780038 20.875 37.25 C20.21508057 36.13778076 19.55516113 35.02556152 18.87524414 33.87963867 C15.62599824 28.40804823 12.3679703 22.94182989 9.1015625 17.48046875 C8.49328613 16.45985352 7.88500977 15.43923828 7.25830078 14.38769531 C6.11194205 12.46425753 4.96204331 10.54292383 3.80810547 8.62402344 C3.30424316 7.77743164 2.80038086 6.93083984 2.28125 6.05859375 C1.83845703 5.31923584 1.39566406 4.57987793 0.93945312 3.81811523 C0 2 0 2 0 0 Z " fill="#00CCFF" transform="translate(985,0)"/>
<path d="M0 0 C2.76390525 3.32201232 5.08024189 6.64737161 7.21484375 10.40234375 C8.10985596 11.96722534 8.10985596 11.96722534 9.02294922 13.5637207 C9.65475098 14.67706787 10.28655273 15.79041504 10.9375 16.9375 C12.29080491 19.3059282 13.64738914 21.67247298 15.00390625 24.0390625 C15.34381592 24.63292252 15.68372559 25.22678253 16.03393555 25.83863831 C19.1007444 31.19134028 22.22656855 36.50751997 25.375 41.8125 C30.35702471 50.21537617 35.31230043 58.63353012 40.25 67.0625 C40.60753357 67.67276031 40.96506714 68.28302063 41.33343506 68.91177368 C43.15936421 72.02845292 44.98503106 75.14528568 46.81054688 78.26220703 C50.01929537 83.74057987 53.2304835 89.21752247 56.44152832 94.69454956 C58.21112266 97.7129722 59.98055288 100.73149105 61.75 103.75 C62.45833255 104.95833379 63.16666588 106.16666713 63.875 107.375 C65.29166667 109.79166667 66.70833333 112.20833333 68.125 114.625 C68.47561996 115.22311493 68.82623993 115.82122986 69.18748474 116.43746948 C69.89587416 117.64590148 70.60425835 118.85433654 71.31263733 120.06277466 C73.08256979 123.08212354 74.85259272 126.10141931 76.62280273 129.12060547 C79.82114542 134.57574994 83.01882473 140.03127772 86.21313477 145.48878479 C87.99581038 148.53445116 89.7790376 151.5797943 91.5625 154.625 C91.91407166 155.22535065 92.26564331 155.82570129 92.62786865 156.44424438 C97.76284769 165.21044403 102.93446273 173.95405462 108.125 182.6875 C113.33936624 191.46152664 118.48139572 200.27316753 123.5625 209.125 C128.45043483 217.64014871 133.42621806 226.09428064 138.5 234.5 C144.2203268 243.9768483 149.79542378 253.52803454 155.3046875 263.12890625 C159.80436152 270.95890034 164.38185008 278.73936171 169 286.5 C174.25787477 295.33567336 179.44519751 304.20719044 184.5625 313.125 C189.45030013 321.64022413 194.42621995 330.09428376 199.5 338.5 C205.21948437 347.97545265 210.7933204 357.52547381 216.30249023 367.12451172 C220.82652509 374.99582636 225.4237325 382.82079827 230.0625 390.625 C235.6329565 399.9966631 241.16239559 409.39037962 246.64746094 418.81225586 C251.18853989 426.61220422 255.74649619 434.40212878 260.3125 442.1875 C260.66835175 442.79430603 261.02420349 443.40111206 261.39083862 444.02630615 C263.20262838 447.1157704 265.01459218 450.20513252 266.82666016 453.29443359 C270.03234269 458.75984483 273.23637859 464.22622131 276.44052124 469.6925354 C278.21027838 472.71173078 279.98014478 475.73086211 281.75 478.75 C282.45833386 479.95833303 283.16666719 481.16666636 283.875 482.375 C284.225625 482.973125 284.57625 483.57125 284.9375 484.1875 C297.33333333 505.33333333 309.72916667 526.47916667 322.125 547.625 C322.47561996 548.22311493 322.82623993 548.82122986 323.18748474 549.43746948 C323.89587416 550.64590148 324.60425835 551.85433654 325.31263733 553.06277466 C327.08256979 556.08212354 328.85259272 559.10141931 330.62280273 562.12060547 C333.82114542 567.57574994 337.01882473 573.03127772 340.21313477 578.48878479 C341.99581038 581.53445116 343.7790376 584.5797943 345.5625 587.625 C345.91407166 588.22535065 346.26564331 588.82570129 346.62786865 589.44424438 C351.76284811 598.21044475 356.93456382 606.95399398 362.125 615.6875 C368.02029086 625.60967236 373.81920477 635.58359142 379.57128906 645.58935547 C383.97861251 653.24937181 388.44529745 660.87163055 392.95263672 668.47314453 C397.43213338 676.02933028 401.87548743 683.60633455 406.3125 691.1875 C411.88418785 700.70707836 417.48882618 710.20591223 423.125 719.6875 C428.33944151 728.46148127 433.4813964 737.27316872 438.5625 746.125 C443.45043483 754.64014871 448.42621806 763.09428064 453.5 771.5 C459.2203268 780.9768483 464.79542378 790.52803454 470.3046875 800.12890625 C474.80436152 807.95890034 479.38185008 815.73936171 484 823.5 C489.25787477 832.33567336 494.44519751 841.20719044 499.5625 850.125 C504.45030013 858.64022413 509.42621995 867.09428376 514.5 875.5 C520.21948437 884.97545265 525.7933204 894.52547381 531.30249023 904.12451172 C535.82652509 911.99582636 540.4237325 919.82079827 545.0625 927.625 C550.63077345 936.99299037 556.15842328 946.38280943 561.64086914 955.80126953 C565.88444588 963.09085655 570.14425729 970.37072676 574.41241455 977.64593506 C576.5549923 981.29850165 578.69603471 984.9519685 580.83728027 988.60531616 C582.59646795 991.60657324 584.35634925 994.60741944 586.11767578 997.60742188 C588.10167299 1000.98688316 590.08220848 1004.36836582 592.0625 1007.75 C592.66449219 1008.77416016 593.26648437 1009.79832031 593.88671875 1010.85351562 C594.43070313 1011.78357422 594.9746875 1012.71363281 595.53515625 1013.671875 C596.013479 1014.4875293 596.49180176 1015.30318359 596.98461914 1016.14355469 C598 1018 598 1018 598 1019 C547.07796063 1019.6642637 496.15636017 1020.17501962 445.23083794 1020.48089455 C439.21418762 1020.51716359 433.19754581 1020.55469908 427.1809082 1020.59301758 C425.38425641 1020.60442808 425.38425641 1020.60442808 423.55130862 1020.6160691 C404.17481785 1020.74214688 384.80083064 1020.9707281 365.42582352 1021.23743109 C345.53428953 1021.50895357 325.64406338 1021.66977001 305.75075239 1021.72856635 C293.48082084 1021.76829889 281.21796452 1021.89357712 268.95021271 1022.12957754 C260.52911841 1022.28329192 252.11166152 1022.32911944 243.68926734 1022.29153994 C238.83180495 1022.27301087 233.98665679 1022.3006292 229.13140869 1022.45695877 C201.51039278 1023.30245604 201.51039278 1023.30245604 194.36017475 1017.71964189 C188.20565922 1011.60016192 184.60214975 1003.63632383 181.41205232 995.68388334 C178.59721776 988.69062011 174.67520438 982.53043456 170.625 976.1875 C169.83090815 974.89324784 169.03980558 973.5971458 168.25439453 972.29760742 C167.63677246 971.28545166 167.01915039 970.2732959 166.3828125 969.23046875 C161.69135324 961.52482764 157.09436463 953.76378337 152.5 946 C145.03579088 933.3891205 137.46933238 920.84432385 129.84765625 908.328125 C126.06298472 902.11157702 122.31653378 895.87284285 118.58056641 889.62695312 C115.10522948 883.82420421 111.59602158 878.04266044 108.078125 872.265625 C100.73739411 860.21066327 93.48292012 848.10833588 86.29391479 835.96228027 C80.75423434 826.60535397 75.16070121 817.28418662 69.5 808 C63.01673213 797.36671155 56.63522658 786.6763327 50.29199219 775.95898438 C44.75294929 766.60315969 39.16003861 757.28309988 33.5 748 C27.4283396 738.04179409 21.44072093 728.03685365 15.5 718 C9.19342431 707.34622265 2.83085252 696.72975787 -3.609375 686.15625 C-9.49328161 676.49610482 -15.32575726 666.80621883 -21.13653564 657.10192871 C-26.19031087 648.66348512 -31.2739801 640.24421177 -36.390625 631.84375 C-43.24205469 620.59513409 -49.99906212 609.29383975 -56.70773315 597.95953369 C-62.24686146 588.60352117 -67.83985454 579.28327512 -73.5 570 C-79.98326787 559.36671155 -86.36477342 548.6763327 -92.70800781 537.95898438 C-98.24705071 528.60315969 -103.83996139 519.28309988 -109.5 510 C-115.57166007 500.04179463 -121.55931979 490.03687745 -127.5 480 C-134.21780571 468.65114486 -141.00749447 457.34954076 -147.8671875 446.0859375 C-153.06411511 437.55165431 -158.21381025 428.99002335 -163.34570312 420.41650391 C-167.25103247 413.89838193 -171.18379497 407.39759767 -175.13745117 400.90869141 C-176.54245372 398.60205321 -177.94360364 396.29314856 -179.34106445 393.98193359 C-179.69069748 393.40376892 -180.04033051 392.82560425 -180.40055847 392.22991943 C-181.11909252 391.04170642 -181.83752613 389.85343267 -182.55586243 388.6651001 C-185.01295703 384.60803142 -187.50046814 380.57076243 -190.00064087 376.54011536 C-191.80522252 373.62227235 -193.59265186 370.69415098 -195.3770752 367.76394653 C-196.2451381 366.34704712 -197.12047468 364.9345763 -198.0032959 363.52682495 C-199.23366608 361.56281152 -200.43753653 359.58472532 -201.63671875 357.6015625 C-202.00864853 357.02149948 -202.38057831 356.44143646 -202.76377869 355.84379578 C-204.56275211 352.80675646 -205.07452387 351.3671086 -204.36279297 347.86108398 C-203.17635705 345.3702487 -201.98362138 342.98194432 -200.55859375 340.62109375 C-200.06649414 339.79794678 -199.57439453 338.9747998 -199.06738281 338.12670898 C-198.26059082 336.79555054 -198.26059082 336.79555054 -197.4375 335.4375 C-196.253224 333.4587415 -195.06966666 331.47955276 -193.88671875 329.5 C-193.25556152 328.44683594 -192.6244043 327.39367187 -191.97412109 326.30859375 C-188.89220486 321.14335398 -185.85419023 315.95257742 -182.81692505 310.76101685 C-181.37503809 308.29664022 -179.93161007 305.83316756 -178.48826599 303.36964417 C-177.38849498 301.49245804 -176.2889547 299.61513692 -175.18945312 297.73779297 C-171.98070463 292.25942013 -168.7695165 286.78247753 -165.55847168 281.30545044 C-163.78887734 278.2870278 -162.01944712 275.26850895 -160.25 272.25 C-159.54166745 271.04166621 -158.83333412 269.83333287 -158.125 268.625 C-157.774375 268.026875 -157.42375 267.42875 -157.0625 266.8125 C-119.875 203.375 -119.875 203.375 -118.81251526 201.56253052 C-118.10412584 200.35409852 -117.39574165 199.14566346 -116.68736267 197.93722534 C-114.91743021 194.91787646 -113.14740728 191.89858069 -111.37719727 188.87939453 C-108.17885458 183.42425006 -104.98117527 177.96872228 -101.78686523 172.51121521 C-100.00418962 169.46554884 -98.2209624 166.4202057 -96.4375 163.375 C-96.08592834 162.77464935 -95.73435669 162.17429871 -95.37213135 161.55575562 C-90.23715189 152.78955525 -85.06543618 144.04600602 -79.875 135.3125 C-73.97970914 125.39032764 -68.18079523 115.41640858 -62.42871094 105.41064453 C-58.02138749 97.75062819 -53.55470255 90.12836945 -49.04736328 82.52685547 C-44.93246569 75.58568934 -40.84696378 68.62764786 -36.77096558 61.66360474 C-30.06956256 50.21423419 -23.33336891 38.78621966 -16.56103516 27.37866211 C-12.29150104 20.18613926 -8.03917575 12.98392953 -3.82836914 5.75683594 C-1.10833609 1.10833609 -1.10833609 1.10833609 0 0 Z " fill="#000033" transform="translate(606,0)"/>
<path d="M0 0 C136.95 0 273.9 0 415 0 C414.11566655 4.42166727 413.41423514 6.36891734 411.1484375 10.04296875 C410.55208496 11.02096436 409.95573242 11.99895996 409.34130859 13.0065918 C408.69242676 14.0562915 408.04354492 15.10599121 407.375 16.1875 C405.99804385 18.4467599 404.62275019 20.70694103 403.25 22.96875 C402.89714935 23.54884323 402.54429871 24.12893646 402.18075562 24.72660828 C398.48087421 30.82381934 394.92154393 37.00005078 391.375 43.1875 C386.32307198 51.98599209 381.21914094 60.74967864 376.04541016 69.47705078 C371.5911141 76.99241339 367.16578299 84.5244752 362.75 92.0625 C362.39246643 92.67276031 362.03493286 93.28302063 361.66656494 93.91177368 C359.84063579 97.02845292 358.01496894 100.14528568 356.18945312 103.26220703 C352.98070463 108.74057987 349.7695165 114.21752247 346.55847168 119.69454956 C344.78887734 122.7129722 343.01944712 125.73149105 341.25 128.75 C340.54166745 129.95833379 339.83333412 131.16666713 339.125 132.375 C338.774375 132.973125 338.42375 133.57125 338.0625 134.1875 C317.875 168.625 317.875 168.625 316.81251526 170.43746948 C316.10412584 171.64590148 315.39574165 172.85433654 314.68736267 174.06277466 C312.91743021 177.08212354 311.14740728 180.10141931 309.37719727 183.12060547 C306.17885458 188.57574994 302.98117527 194.03127772 299.78686523 199.48878479 C298.00418962 202.53445116 296.2209624 205.5797943 294.4375 208.625 C294.08592834 209.22535065 293.73435669 209.82570129 293.37213135 210.44424438 C288.23715189 219.21044475 283.06543618 227.95399398 277.875 236.6875 C271.97970914 246.60967236 266.18079523 256.58359142 260.42871094 266.58935547 C256.02270056 274.24708967 251.55672167 281.86669828 247.05175781 289.46655273 C242.90043228 296.47081318 238.77150089 303.48797518 234.6545105 310.51245117 C233.5707088 312.36099894 232.48575644 314.20886746 231.40063477 316.05664062 C227.86401955 322.0831432 224.34932884 328.1209501 220.875 334.18359375 C220.23103271 335.30266113 219.58706543 336.42172852 218.92358398 337.57470703 C217.70588359 339.69318304 216.49420481 341.81513453 215.28930664 343.94091797 C214.75168701 344.87436035 214.21406738 345.80780273 213.66015625 346.76953125 C213.19230713 347.59042236 212.72445801 348.41131348 212.24243164 349.25708008 C211.8324292 349.83224365 211.42242676 350.40740723 211 351 C210.34 351 209.68 351 209 351 C207.64924093 349.02066988 206.43811093 347.05779011 205.24609375 344.984375 C204.87368057 344.35065979 204.5012674 343.71694458 204.11756897 343.06402588 C203.30939579 341.68713283 202.50456007 340.30827676 201.70263672 338.92773438 C199.55439014 335.22986492 197.38245717 331.54591279 195.21484375 327.859375 C194.77413544 327.10813354 194.33342712 326.35689209 193.87936401 325.58288574 C189.82444092 318.67747955 185.67486656 311.83349546 181.5 305 C175.01653862 294.36678886 168.63523895 283.6763536 162.29199219 272.95898438 C156.41334826 263.02955018 150.46698203 253.1446798 144.45901489 243.29302979 C138.71080217 233.86380086 133.05881794 224.38034325 127.4375 214.875 C121.71194825 205.19411539 115.92349397 195.56151023 110 186 C103.65795621 175.76288033 97.47887669 165.43832589 91.34912109 155.07324219 C85.79233304 145.67839875 80.18310843 136.31895832 74.5 127 C68.01645985 116.36688019 61.63522407 105.67632846 55.29199219 94.95898438 C49.75295022 85.60316127 44.16014404 76.28303472 38.5 67 C31.4773964 55.48094491 24.57053513 43.89624857 17.70581055 32.2824707 C12.88686989 24.13624774 8.02235853 16.02294997 2.94384766 8.03466797 C0 3.32379632 0 3.32379632 0 0 Z " fill="#00CCFF" transform="translate(1765,0)"/>
<path d="M0 0 C3.9610941 1.3203647 4.36517686 2.86460686 6.4140625 6.45703125 C6.74089523 7.02315125 7.06772797 7.58927124 7.40446472 8.17254639 C8.11338901 9.40229836 8.81830353 10.63436854 9.51968384 11.86843872 C11.40738642 15.18858332 13.32494948 18.49145686 15.23828125 21.796875 C15.63184311 22.47863297 16.02540497 23.16039093 16.43089294 23.86280823 C20.45728414 30.82443897 24.62150449 37.69911146 28.8125 44.5625 C29.53281074 45.74383802 30.25302605 46.92523423 30.97314453 48.10668945 C32.35247201 50.36960652 33.73205357 52.63236779 35.11181641 54.89501953 C37.76106727 59.25151973 40.38328274 63.62390607 43 68 C46.94515912 74.59585533 50.92453668 81.17000774 54.921875 87.734375 C62.26260589 99.78933673 69.51707988 111.89166412 76.70608521 124.03771973 C82.24576566 133.39464603 87.83929879 142.71581338 93.5 152 C99.98326787 162.63328845 106.36477342 173.3236673 112.70800781 184.04101562 C118.24705071 193.39684031 123.83996139 202.71690012 129.5 212 C135.57166007 221.95820537 141.55931979 231.96312255 147.5 242 C154.21780571 253.34885514 161.00749447 264.65045924 167.8671875 275.9140625 C173.05470477 284.43289222 178.19649482 292.97817977 183.31713867 301.53735352 C186.69122236 307.1710005 190.08479231 312.79204905 193.50390625 318.3984375 C193.88433075 319.02272644 194.26475525 319.64701538 194.65670776 320.29022217 C196.49836644 323.31201702 198.34254799 326.33221424 200.19140625 329.34960938 C200.86171875 330.44853516 201.53203125 331.54746094 202.22265625 332.6796875 C202.80797119 333.63601074 203.39328613 334.59233398 203.99633789 335.57763672 C206.77420814 340.32238939 209.36721711 345.17323137 212 350 C74.72 350 -62.56 350 -204 350 C-202.5937346 346.4843365 -201.25731176 343.50287604 -199.41796875 340.25390625 C-198.90524414 339.34624512 -198.39251953 338.43858398 -197.86425781 337.50341797 C-197.31092773 336.53291504 -196.75759766 335.56241211 -196.1875 334.5625 C-195.60709961 333.54043457 -195.02669922 332.51836914 -194.42871094 331.46533203 C-189.5426675 322.89033899 -184.54037525 314.38723642 -179.5 305.90234375 C-175.55681563 299.26291663 -171.65264841 292.60079005 -167.75 285.9375 C-167.02711951 284.70376438 -166.30421903 283.47004048 -165.58129883 282.23632812 C-162.30907444 276.65151834 -159.03839728 271.06580394 -155.76873779 265.47949219 C-153.99213877 262.44438015 -152.21493275 259.40962385 -150.4375 256.375 C-150.08629089 255.77528381 -149.73508179 255.17556763 -149.37322998 254.55767822 C-144.23788871 245.79083492 -139.06591461 237.04658027 -133.875 228.3125 C-128.66063376 219.53847336 -123.51860428 210.72683247 -118.4375 201.875 C-112.94635685 192.30901719 -107.32237365 182.83251499 -101.62255859 173.38964844 C-96.53753448 164.94504165 -91.6012973 156.42064467 -86.6953125 147.87109375 C-81.54046294 138.90101251 -76.27344068 130.00090176 -70.98291016 121.11035156 C-66.40322002 113.40152168 -61.90020464 105.65205641 -57.4375 97.875 C-51.94650807 88.3089323 -46.3223716 78.83251159 -40.62255859 69.38964844 C-35.54583333 60.95882339 -30.6170358 52.4486889 -25.71948242 43.9128418 C-20.32328366 34.52208194 -14.81627702 25.20019057 -9.27758789 15.89306641 C-6.13994708 10.61978104 -3.0188808 5.3422726 0 0 Z " fill="#000033" transform="translate(213,669)"/>
<path d="M0 0 C30 0 30 0 36.875 5.875 C38.32086867 8.20753377 39.70213461 10.58198523 41 13 C42.29428187 14.69717117 43.62567089 16.36697365 45 18 C45.63035156 18.79535156 46.26070312 19.59070312 46.91015625 20.41015625 C49.83220315 24.03130969 52.84821486 27.56954569 55.86328125 31.11328125 C58.78004513 34.54571609 61.65693426 38.00592815 64.5 41.5 C67.78823483 45.53983137 71.12721426 49.53092065 74.5 53.5 C78.62101634 58.34959381 82.66991354 63.25160806 86.6875 68.1875 C89.26146392 71.31799666 91.87569086 74.41172461 94.5 77.5 C98.61206383 82.33905854 102.65341216 87.22933141 106.66015625 92.15625 C109.8512285 96.03454816 113.1040901 99.85935656 116.37109375 103.67382812 C118.39966777 106.05327468 120.26271453 108.39407179 122 111 C122.33 74.37 122.66 37.74 123 0 C136.53 0 150.06 0 164 0 C164 60.06 164 120.12 164 182 C154.1 182 144.2 182 134 182 C123.97524752 170.86138614 123.97524752 170.86138614 120.6875 166.75 C117.19567126 162.4354891 113.62419165 158.20294472 110 154 C105.68048535 148.98700394 101.44902234 143.91461883 97.27734375 138.77734375 C94.71795946 135.65603633 92.11406209 132.5754997 89.5 129.5 C85.37892208 124.65045949 81.33008517 119.74839036 77.3125 114.8125 C74.73853608 111.68200334 72.12430914 108.58827539 69.5 105.5 C65.38793617 100.66094146 61.34658784 95.77066859 57.33984375 90.84375 C54.1487715 86.96545184 50.8959099 83.14064344 47.62890625 79.32617188 C45.60033223 76.94672532 43.73728547 74.60592821 42 72 C41.67 108.3 41.34 144.6 41 182 C27.47 182 13.94 182 0 182 C0 121.94 0 61.88 0 0 Z " fill="#000033" transform="translate(2018,1327)"/>
<path d="M0 0 C3.20192126 2.86068631 6.25254264 5.84253794 9.19921875 8.96484375 C3.31666371 15.99521441 -2.91970973 22.28451149 -9.875 28.25390625 C-11.72891086 29.90099136 -13.45453826 31.61828167 -15.17578125 33.40234375 C-17.80078125 35.96484375 -17.80078125 35.96484375 -19.80078125 35.96484375 C-20.80346898 34.83606954 -21.75235272 33.65932842 -22.67578125 32.46484375 C-32.0611765 21.55383898 -45.68798304 15.75580799 -59.80078125 13.96484375 C-77.9603664 12.87240322 -94.97748026 15.38332033 -109.58203125 27.21875 C-121.0119058 37.94286423 -127.07970153 51.23163119 -127.9609375 66.79296875 C-128.45038723 84.41315909 -123.20280372 100.13958511 -111.17578125 113.08984375 C-99.50977025 124.13953719 -84.47423203 128.65706375 -68.66552734 128.36523438 C-54.85431794 127.75516868 -40.98075098 123.84540297 -30.42578125 114.52734375 C-25.38044898 108.49919395 -25.38044898 108.49919395 -18.80078125 93.96484375 C-37.28078125 93.63484375 -55.76078125 93.30484375 -74.80078125 92.96484375 C-74.80078125 81.74484375 -74.80078125 70.52484375 -74.80078125 58.96484375 C-41.80078125 58.96484375 -8.80078125 58.96484375 25.19921875 58.96484375 C25.19921875 79.01971976 25.19921875 79.01971976 24.07421875 86.40234375 C23.94370117 87.27431396 23.81318359 88.14628418 23.67871094 89.04467773 C20.67406261 107.42066717 13.49512379 122.90214848 1.19921875 136.96484375 C0.31169922 137.99544922 0.31169922 137.99544922 -0.59375 139.046875 C-10.17417982 149.40354434 -22.67212578 155.43267984 -35.80078125 159.96484375 C-36.71085938 160.28195312 -37.6209375 160.5990625 -38.55859375 160.92578125 C-64.01128846 168.78731693 -94.53468863 166.31941191 -118.09277344 154.0925293 C-120.00608133 153.06801256 -121.90611567 152.02338517 -123.80078125 150.96484375 C-124.80109375 150.40796875 -125.80140625 149.85109375 -126.83203125 149.27734375 C-147.8189431 136.73344242 -161.96381535 116.40546249 -168.109375 92.953125 C-171.97064063 76.26460405 -171.57954749 57.15683233 -165.80078125 40.96484375 C-165.46175781 39.94261719 -165.12273437 38.92039062 -164.7734375 37.8671875 C-156.30812767 15.00181327 -137.68526739 -3.13240263 -115.86328125 -13.28125 C-106.57995721 -17.39504547 -96.86602531 -20.56552809 -86.80078125 -22.03515625 C-85.67736328 -22.20144531 -85.67736328 -22.20144531 -84.53125 -22.37109375 C-54.51828481 -26.05427687 -23.47472265 -19.5946032 0 0 Z " fill="#000033" transform="translate(425.80078125,1347.03515625)"/>
<path d="M0 0 C1.66705094 1.4763836 3.31368425 2.97619235 4.9375 4.5 C5.78441406 5.25667969 6.63132812 6.01335937 7.50390625 6.79296875 C24.01133692 22.24190768 34.04424015 44.93547945 34.9375 67.5 C34.97746094 68.25925781 35.01742188 69.01851562 35.05859375 69.80078125 C35.73950494 94.27353032 26.96448297 117.30473252 10.30029297 135.07910156 C-8.35853774 154.53348973 -33.84464135 165.83257397 -60.8046875 166.703125 C-92.29672882 167.18342911 -119.91007562 158.2463045 -142.875 136.0625 C-161.93274269 116.29487004 -168.54842414 92.65519294 -168.27734375 65.734375 C-167.69468443 41.48706156 -155.51619477 20.18725514 -138.390625 3.5859375 C-101.40076561 -29.55598349 -38.68062984 -30.76992275 0 0 Z M-110.6875 30.625 C-122.17937562 42.67843324 -126.74373437 57.75432543 -126.53540039 74.13012695 C-125.82146509 90.99176953 -119.58516095 105.96182497 -107.0625 117.5 C-90.97241969 129.77927182 -73.01088078 132.33698627 -53.33203125 130.0703125 C-38.62105829 127.1675383 -26.2109865 118.64016919 -17.25 106.75 C-7.56969346 92.1265582 -6.26296357 75.04227414 -8.5234375 58.03125 C-9.18332275 55.391709 -10.00132229 53.00421861 -11.0625 50.5 C-11.66578125 49.03240234 -11.66578125 49.03240234 -12.28125 47.53515625 C-18.71804907 33.3563183 -29.75675006 23.04342491 -44.234375 17.49609375 C-45.16765625 17.16738281 -46.1009375 16.83867188 -47.0625 16.5 C-47.72765625 16.26410156 -48.3928125 16.02820312 -49.078125 15.78515625 C-70.74691889 9.33162416 -94.39809316 15.43252291 -110.6875 30.625 Z " fill="#000033" transform="translate(1903.0625,1345.5)"/>
<path d="M0 0 C16.54653036 15.10790739 27.71802551 37.37204103 29.05541992 59.8215332 C30.24802859 87.76093825 22.30570829 110.16553558 3.72290039 131.21508789 C-14.42351705 150.47496709 -40.53810224 160.87813195 -66.73022461 161.93774414 C-96.26728261 162.69018813 -123.69122479 154.38982551 -145.62426758 134.09106445 C-162.47641211 118.05278573 -173.43452858 95.87881411 -174.27319336 72.43774414 C-174.72153323 45.76009401 -166.61190287 22.29042399 -148.07006836 2.71508789 C-109.29445807 -37.15471952 -40.64928704 -35.49966212 0 0 Z M-116.28491211 25.73852539 C-127.21336893 37.02357293 -131.87260263 51.75851325 -132.44506836 67.21508789 C-131.91166277 83.48395835 -126.96513987 97.63116702 -116.07006836 109.71508789 C-103.68047638 121.02806705 -89.34243896 126.13398886 -72.75756836 126.02758789 C-71.83403564 126.02194824 -70.91050293 126.01630859 -69.95898438 126.01049805 C-54.59511392 125.73790237 -41.50295483 120.7975983 -30.32006836 110.06274414 C-18.75430165 97.99499103 -13.27019256 84.01871673 -12.69506836 67.21508789 C-13.27014989 51.68788658 -17.96716189 37.0187496 -28.91381836 25.67211914 C-53.7737064 3.10906859 -91.52405334 3.11749392 -116.28491211 25.73852539 Z " fill="#000033" transform="translate(915.070068359375,1350.284912109375)"/>
<path d="M0 0 C102.34987437 0 102.34987437 0 119.8125 16.70703125 C131.72923304 29.19832107 134.64033557 41.9095982 134.30859375 58.78125 C133.6956103 72.9231088 127.23748883 83.58628703 117.15234375 93.1875 C109.41690495 99.70155373 99.26869132 105 89 105 C94.58741976 111.94457081 100.3324699 118.72301299 106.19116211 125.43847656 C109.44532711 129.17793267 112.63158396 132.95809416 115.75 136.8125 C118.57487839 140.30235888 121.47717579 143.68010514 124.5 147 C128.31315396 151.18789495 131.90042142 155.51545574 135.45703125 159.921875 C139.09370439 164.32386952 142.86519321 168.60688951 146.65917969 172.8737793 C147.4601709 173.7851062 147.4601709 173.7851062 148.27734375 174.71484375 C148.75421631 175.25230225 149.23108887 175.78976074 149.72241211 176.34350586 C151.10468154 178.13572793 152.01423323 179.96829354 153 182 C146.52790846 182.35791169 140.05839724 182.60127226 133.57861328 182.76904297 C131.38005284 182.83902795 129.18213425 182.93426375 126.98583984 183.05615234 C107.74313535 184.09653482 107.74313535 184.09653482 101.96704102 179.0168457 C99.30383049 176.15733741 97.13505509 173.07739368 95.10232544 169.74703979 C93.44402926 167.11886003 91.44714954 164.80158917 89.4375 162.4375 C88.37015625 161.12265625 88.37015625 161.12265625 87.28125 159.78125 C84.70157112 156.63616205 82.07368017 153.53520324 79.4375 150.4375 C75.56566092 145.88501488 71.79558717 141.26830298 68.0859375 136.58203125 C65.20154194 133.01164649 62.2129364 129.53141296 59.21801758 126.05371094 C56.79402558 123.21361361 54.47890706 120.33888966 52.28515625 117.31640625 C51.84800293 116.71932861 51.41084961 116.12225098 50.96044922 115.50708008 C49.75493929 113.84308795 48.57017699 112.16412218 47.38671875 110.484375 C44.86401933 107.36330926 44.86401933 107.36330926 39 107 C39 131.75 39 156.5 39 182 C26.13 182 13.26 182 0 182 C0 121.94 0 61.88 0 0 Z M39 31 C39 46.18 39 61.36 39 77 C48.1575 77.0928125 48.1575 77.0928125 57.5 77.1875 C59.41103516 77.21481201 61.32207031 77.24212402 63.29101562 77.27026367 C64.82942068 77.27903694 66.36783278 77.28667888 67.90625 77.29296875 C68.68581055 77.30831665 69.46537109 77.32366455 70.26855469 77.33947754 C77.18063717 77.34272977 82.39137994 75.70563619 88.25 71.875 C93.17122802 66.7300798 95.21042835 61.55570264 95.4375 54.4375 C95.10222664 47.15292418 93.70391694 42.2611517 88.3125 37.1875 C82.04807271 31.72720209 75.11744524 30.54519443 67.125 30.70703125 C66.04605469 30.71156311 66.04605469 30.71156311 64.9453125 30.71618652 C62.29672589 30.73170559 59.64834622 30.77358749 57 30.8125 C51.06 30.874375 45.12 30.93625 39 31 Z " fill="#000033" transform="translate(531,1327)"/>
<path d="M0 0 C12.54 0 25.08 0 38 0 C42.67601452 9.35202905 47.2648978 18.56874002 51.4375 28.125 C52.47337063 30.4755195 53.50986612 32.8257637 54.546875 35.17578125 C54.81948654 35.79472763 55.09209808 36.41367401 55.37297058 37.05137634 C58.58938399 44.35023856 61.85043655 51.62908441 65.11074829 58.90841675 C66.19423361 61.32753425 67.27724278 63.74686437 68.36010742 66.16625977 C69.83221494 69.4553044 71.30448208 72.74427751 72.77685547 76.03320312 C74.98892941 80.97482503 77.19969978 85.9170294 79.41015625 90.859375 C79.77060028 91.66524551 80.13104431 92.47111603 80.50241089 93.30140686 C81.94424319 96.52502471 83.3860659 99.7486468 84.82763672 102.97238159 C88.36684226 110.88687552 91.90764314 118.800606 95.46484375 126.70703125 C100.97341923 138.95470765 106.44885399 151.21656199 111.85440063 163.5100708 C112.48907175 164.9524592 113.12494118 166.39432097 113.76205444 167.83563232 C114.64320054 169.83024549 115.51953811 171.82690026 116.39453125 173.82421875 C117.15020386 175.54257935 117.15020386 175.54257935 117.92114258 177.2956543 C119 180 119 180 119 182 C103.82 182 88.64 182 73 182 C71.47375 178.514375 69.9475 175.02875 68.375 171.4375 C67.90755371 170.37329834 67.44010742 169.30909668 66.95849609 168.21264648 C63.46187716 160.19722026 60.252889 152.1322225 57 144 C31.59 143.67 6.18 143.34 -20 143 C-20.99 145.97 -21.98 148.94 -23 152 C-23.93551146 154.40587542 -24.8957178 156.80232447 -25.8828125 159.1875 C-26.14254852 159.8160791 -26.40228455 160.4446582 -26.66989136 161.09228516 C-27.21120731 162.40019873 -27.75402934 163.70748998 -28.29833984 165.01416016 C-29.13416488 167.02201629 -29.96385568 169.03233301 -30.79296875 171.04296875 C-31.32255874 172.32046094 -31.85249369 173.59781019 -32.3828125 174.875 C-32.86121582 176.02742188 -33.33961914 177.17984375 -33.83251953 178.3671875 C-35 181 -35 181 -36 182 C-37.41225046 182.0928726 -38.82908934 182.11746772 -40.24438477 182.11352539 C-41.14524307 182.11344986 -42.04610138 182.11337433 -42.97425842 182.11329651 C-43.95341721 182.10813522 -44.93257599 182.10297394 -45.94140625 182.09765625 C-46.93881332 182.0962413 -47.9362204 182.09482635 -48.96385193 182.09336853 C-52.16343124 182.08775114 -55.36294169 182.07519571 -58.5625 182.0625 C-60.72591045 182.05748724 -62.88932199 182.05292395 -65.05273438 182.04882812 C-70.36851325 182.03777607 -75.68425171 182.02102104 -81 182 C-80.34242689 177.68929966 -78.814725 173.95352427 -77.03515625 170.0078125 C-76.57819366 168.97931435 -76.57819366 168.97931435 -76.11199951 167.93003845 C-75.1008972 165.65923977 -74.08195005 163.39206203 -73.0625 161.125 C-72.34513273 159.52017399 -71.62793209 157.91527347 -70.91088867 156.31030273 C-64.88321387 142.84875282 -58.70317725 129.4581812 -52.50195312 116.07592773 C-47.60647861 105.50801589 -42.78555122 94.91145556 -38.04003906 84.27514648 C-33.25053554 73.54192565 -28.41032725 62.83199342 -23.5625 52.125 C-22.7483629 50.32658307 -21.93423524 48.52816188 -21.12011719 46.72973633 C-19.91498271 44.06758098 -18.70982971 41.40543403 -17.50457764 38.74333191 C-11.66010023 25.83323164 -5.83108018 12.91615611 0 0 Z M19 53 C14.08295619 62.34906114 9.94113541 71.95966913 5.8762207 81.70117188 C4.80792154 84.26097066 3.73356993 86.81816332 2.65820312 89.375 C1.96579475 91.02589446 1.27372548 92.6769312 0.58203125 94.328125 C0.26635696 95.08039368 -0.04931732 95.83266235 -0.3745575 96.60772705 C-0.67529678 97.32917908 -0.97603607 98.0506311 -1.28588867 98.79394531 C-1.54536789 99.41505188 -1.80484711 100.03615845 -2.07218933 100.67608643 C-3.43740554 104.09558201 -4.70718059 107.55248157 -6 111 C10.17 111 26.34 111 43 111 C42.25110416 107.25552082 41.52296276 104.5366463 40.08227539 101.10546875 C39.68839127 100.16098877 39.29450714 99.21650879 38.88868713 98.2434082 C38.46264694 97.2349585 38.03660675 96.22650879 37.59765625 95.1875 C37.15989365 94.14102295 36.72213104 93.0945459 36.27110291 92.01635742 C34.87257068 88.67573501 33.46768625 85.33782821 32.0625 82 C31.1200101 79.75278555 30.17794792 77.50539167 29.23632812 75.2578125 C27.90919997 72.09007775 26.5814571 68.92261869 25.2502594 65.7565918 C24.85322311 64.81211182 24.45618683 63.86763184 24.04711914 62.89453125 C23.69927872 62.06800049 23.35143829 61.24146973 22.99305725 60.38989258 C21.97306435 57.93517665 20.98180042 55.47021129 20 53 C19.67 53 19.34 53 19 53 Z " fill="#000033" transform="translate(81,1327)"/>
<path d="M0 0 C15.84 0 31.68 0 48 0 C49.48628906 3.49207031 50.97257812 6.98414063 52.50390625 10.58203125 C54.25755804 14.7015208 56.01141487 18.82092302 57.76535797 22.94028854 C58.29598646 24.18655169 58.82660072 25.4328209 59.35720062 26.67909622 C65.63139376 41.41585149 71.91245632 56.14952715 78.23504639 70.86560059 C83.04058547 82.05336753 87.82549749 93.24979336 92.55487061 104.47000122 C93.13721994 105.8506093 93.72073216 107.23072753 94.30548096 108.61032104 C95.10171444 110.49002506 95.89279639 112.37190878 96.68359375 114.25390625 C97.13275146 115.31939697 97.58190918 116.3848877 98.04467773 117.48266602 C99 120 99 120 99 122 C99.66 122 100.32 122 101 122 C101.39735352 120.74735352 101.79470703 119.49470703 102.20410156 118.20410156 C104.08168882 112.58119734 106.38442897 107.17343338 108.734375 101.734375 C109.20094513 100.64668823 109.66751526 99.55900146 110.14822388 98.43835449 C111.67846368 94.87397284 113.2140764 91.31193572 114.75 87.75 C115.54750917 85.89618144 116.34448186 84.0421329 117.14140129 82.18806076 C120.75206435 73.78820932 124.37402837 65.39325286 128 57 C128.41675743 56.03525757 128.41675743 56.03525757 128.8419342 55.05102539 C132.84673016 45.78131596 136.85832279 36.51456802 140.875 27.25 C141.3743103 26.09786011 141.87362061 24.94572021 142.38806152 23.75866699 C143.79640543 20.51039179 145.20644186 17.26285772 146.6171875 14.015625 C147.03380646 13.05466919 147.45042542 12.09371338 147.87966919 11.1036377 C148.26339691 10.2215564 148.64712463 9.3394751 149.04248047 8.43066406 C149.37424286 7.66691467 149.70600525 6.90316528 150.04782104 6.11627197 C150.97669861 4.05178867 151.98758656 2.02482687 153 0 C168.51 0 184.02 0 200 0 C199.05362935 4.73185324 197.52607237 8.54935595 195.4921875 12.859375 C195.13499634 13.62789795 194.77780518 14.3964209 194.40979004 15.18823242 C193.63904287 16.84512744 192.8658652 18.50089357 192.09051514 20.15563965 C190.43948502 23.67955058 188.8002928 27.20892292 187.16055298 30.73809814 C186.32142821 32.54398954 185.48172279 34.34961123 184.64144897 36.15496826 C180.83767889 44.33158444 177.09608786 52.5354993 173.375 60.75 C172.15399164 63.44286523 170.9325199 66.13552013 169.7109375 68.828125 C169.40864227 69.49459045 169.10634705 70.16105591 168.79489136 70.84771729 C165.2135673 78.73956689 161.60625172 86.61951916 158 94.5 C152.81755919 105.8262039 147.64994727 117.15898486 142.5 128.5 C137.05678798 140.4860904 131.59716356 152.46459853 126.125 164.4375 C125.77171631 165.21077637 125.41843262 165.98405273 125.05444336 166.78076172 C124.0601406 168.95689231 123.06532629 171.13278819 122.0703125 173.30859375 C121.77315338 173.95900131 121.47599426 174.60940887 121.16983032 175.27952576 C120.1384635 177.53343188 119.10859228 179.78281544 118 182 C105.79 182 93.58 182 81 182 C72.89243662 164.62664989 72.89243662 164.62664989 70.23828125 158.828125 C69.92572388 158.14603973 69.6131665 157.46395447 69.2911377 156.76119995 C68.29736463 154.59120762 67.30474063 152.42069345 66.3125 150.25 C65.96617523 149.49265564 65.61985046 148.73531128 65.26303101 147.95501709 C59.73857116 135.86829594 54.29933809 123.74667115 48.921875 111.59375 C45.82443762 104.59412832 42.69614455 97.60847078 39.5625 90.625 C39.29233063 90.02278625 39.02216125 89.42057251 38.74380493 88.80010986 C37.37649506 85.75236806 36.00889864 82.704755 34.64111328 79.65722656 C31.38750784 72.4073843 28.1382938 65.15557178 24.88842773 57.90405273 C22.10748498 51.69937637 19.32479185 45.49549708 16.5390625 39.29296875 C13.35293133 32.19818953 10.17338544 25.10049148 7 18 C6.5889502 17.0812207 6.17790039 16.16244141 5.75439453 15.21582031 C4.72772672 12.9166189 3.70620952 10.61523604 2.6875 8.3125 C2.15511719 7.11238281 1.62273438 5.91226562 1.07421875 4.67578125 C0 2 0 2 0 0 Z " fill="#000033" transform="translate(996,1327)"/>
<path d="M0 0 C4.8803569 4.22826983 4.8803569 4.22826983 6.96484375 6.65625 C6.96484375 9.65625 6.96484375 9.65625 5.71484375 11.234375 C5.13734375 11.78609375 4.55984375 12.3378125 3.96484375 12.90625 C3.3203125 13.52371094 2.67578125 14.14117188 2.01171875 14.77734375 C-0.54427079 17.12358605 -3.14189219 19.41412469 -5.76953125 21.6796875 C-10.25868902 25.59609066 -14.63710141 29.63817417 -19.03515625 33.65625 C-19.49664063 33.29273438 -19.958125 32.92921875 -20.43359375 32.5546875 C-34.5954753 21.6394033 -47.98519873 16.02984823 -66.03515625 17.65625 C-71.47260071 18.77704244 -76.31082078 20.38748944 -80.16015625 24.53125 C-82.50938027 28.44662336 -83.49208679 31.04071658 -82.6953125 35.6015625 C-80.92563067 41.68556669 -77.42537206 44.59898697 -72.03515625 47.65625 C-63.29313884 52.16702933 -53.98779373 55.00947678 -44.66015625 58.03125 C-26.05065565 64.09439053 -7.07582379 71.603768 3.50390625 89.21875 C6.93927685 96.12967097 8.25910185 103.0107127 8.96484375 110.65625 C9.03703125 111.41421875 9.10921875 112.1721875 9.18359375 112.953125 C9.76244489 125.78432525 5.95813702 138.53468563 -2.296875 148.34375 C-18.04103505 164.95297379 -39.87772036 169.85906151 -62.0390625 170.78125 C-92.50661404 171.39136367 -115.5264829 162.14286759 -138.03515625 141.65625 C-137.66104454 137.13484279 -134.41585649 134.89709072 -131.22265625 132.09375 C-130.04554326 131.03518922 -128.86846068 129.97659463 -127.69140625 128.91796875 C-127.088125 128.38091309 -126.48484375 127.84385742 -125.86328125 127.29052734 C-122.95619015 124.6916935 -120.09159194 122.04702932 -117.22265625 119.40625 C-116.21645307 118.48403967 -115.20997243 117.56213191 -114.203125 116.640625 C-113.12998047 115.65835937 -113.12998047 115.65835937 -112.03515625 114.65625 C-108.23112642 116.41441505 -106.00659339 118.68481286 -103.03515625 121.65625 C-89.63197607 133.05045239 -74.30179711 136.79567453 -56.98876953 135.82910156 C-48.48006712 135.07626961 -41.38698719 132.44911132 -35.66015625 125.96875 C-33.03863647 120.62488276 -33.23295996 116.06283886 -35.09765625 110.46875 C-43.77306007 97.87542188 -60.75749577 94.5610298 -74.55419922 90.11206055 C-92.33948269 84.35347417 -111.4997916 76.97277209 -120.66015625 59.46875 C-126.76410718 46.24352298 -127.2500189 30.12443751 -122.29296875 16.44921875 C-115.85176662 2.14654943 -104.27867642 -6.7291703 -89.97265625 -12.59375 C-61.08536939 -22.25059517 -24.47875528 -18.90251373 0 0 Z " fill="#000033" transform="translate(1525.03515625,1341.34375)"/>
<path d="M0 0 C13.2 0 26.4 0 40 0 C40 60.06 40 120.12 40 182 C26.8 182 13.6 182 0 182 C0 121.94 0 61.88 0 0 Z " fill="#000033" transform="translate(1613,1327)"/>
<path d="M0 0 C13.2 0 26.4 0 40 0 C40 60.06 40 120.12 40 182 C26.8 182 13.6 182 0 182 C0 121.94 0 61.88 0 0 Z " fill="#000033" transform="translate(1270,1327)"/>
</svg>