<svg xmlns="http://www.w3.org/2000/svg" width="100%" viewBox="0 0 154 32" fill="none" class="logo"><g clip-path="url(#clip0_728_8438)"><path d="M141.021 11.349L139.194 13.0333C139.051 13.1633 139.012 13.3779 139.122 13.56C139.2 13.6836 139.344 13.7551 139.493 13.7551H140.416C140.631 13.7551 140.8 13.9307 140.8 14.1388V25.9742C140.8 29.0306 142.302 31.7294 146.203 31.7294C150.651 31.7294 152.627 29.4922 153.603 26.4814C153.681 26.2342 153.557 25.9676 153.317 25.8702L152.875 25.6945C152.634 25.5971 152.354 25.7076 152.244 25.9482C151.802 26.9172 151.243 27.8926 150.202 27.8926C148.648 27.8926 148.531 26.2733 148.531 25.0182V14.1388C148.531 13.9242 148.707 13.7551 148.915 13.7551H152.354C152.673 13.7551 152.926 13.5015 152.926 13.1828V11.8692C152.926 11.5506 152.673 11.297 152.354 11.297H148.915C148.7 11.297 148.531 11.1214 148.531 10.9133V6.48476C148.531 5.69139 147.588 5.28172 147.003 5.81495L141.021 11.3425V11.349Z" fill="currentColor"></path><path d="M77.1168 26.6828V13.1242C77.1168 12.1227 76.3042 11.3034 75.2963 11.3034H67.9942C67.6366 11.3034 67.3441 11.596 67.3441 11.9537C67.3441 12.1878 67.4742 12.4024 67.6757 12.5194C68.9112 13.2413 69.3208 14.3273 69.3208 15.8164V23.3989C69.3208 25.1352 68.2999 27.4763 66.2647 27.4763C64.8277 27.4763 63.6898 26.2147 63.6898 24.836V13.1177C63.6898 12.1162 62.8772 11.2969 61.8692 11.2969H54.8014C54.4827 11.2969 54.2227 11.557 54.2227 11.8756C54.2227 12.0772 54.3268 12.2658 54.5023 12.3699C55.6531 13.0917 55.9588 14.1712 55.9588 15.5628V25.7269C55.9588 29.2061 58.8327 31.4171 62.1294 31.4171C64.8148 31.4171 66.9085 30.2011 68.4365 28.3543C68.7356 27.9964 69.3142 28.1982 69.3142 28.6663V30.6823C69.3142 31.0919 69.6458 31.4236 70.0556 31.4236H78.4108C78.7815 31.4236 79.0806 31.1245 79.0806 30.7537C79.0806 30.5262 78.9636 30.3181 78.775 30.1945C77.5201 29.3816 77.1039 28.6598 77.1039 27.047" fill="currentColor"></path><path d="M90.482 26.6842V13.1256C90.482 12.1111 89.6563 11.2982 88.642 11.3047H81.0214C80.6833 11.3047 80.4102 11.5779 80.4102 11.916C80.4102 12.1566 80.5532 12.3842 80.7743 12.4818C82.0943 13.054 82.803 14.3351 82.803 15.8243V26.6908C82.803 28.3685 82.3349 29.3116 81.054 30.209C80.8719 30.3324 80.7612 30.5405 80.7612 30.7616C80.7612 31.1388 81.0603 31.4379 81.4376 31.4379H91.711C92.0817 31.4379 92.3873 31.1388 92.3873 30.7616C92.3873 30.5405 92.2767 30.326 92.0882 30.2024C90.8333 29.3439 90.4691 28.6808 90.4691 27.0615" fill="currentColor"></path><path d="M94.5562 11.349L92.7291 13.0333C92.5861 13.1633 92.547 13.3779 92.6575 13.56C92.7356 13.6836 92.8786 13.7551 93.0282 13.7551H93.9515C94.1661 13.7551 94.3351 13.9307 94.3351 14.1388V25.9742C94.3351 29.0306 95.8371 31.7294 99.7385 31.7294C104.186 31.7294 106.163 29.4922 107.138 26.4814C107.216 26.2342 107.093 25.9676 106.852 25.8702L106.41 25.6945C106.169 25.5971 105.89 25.7076 105.779 25.9482C105.337 26.9172 104.778 27.8926 103.737 27.8926C102.183 27.8926 102.066 26.2733 102.066 25.0182V14.1388C102.066 13.9242 102.242 13.7551 102.45 13.7551H105.89C106.208 13.7551 106.462 13.5015 106.462 13.1828V11.8692C106.462 11.5506 106.208 11.297 105.89 11.297H102.45C102.235 11.297 102.066 11.1214 102.066 10.9133V6.48476C102.066 5.69139 101.123 5.28172 100.538 5.81495L94.5562 11.3425V11.349Z" fill="currentColor"></path><path d="M132.483 28.4471C132.984 24.2462 121.338 26.1126 121.338 17.8733C121.338 13.4058 125.87 10.6875 129.915 10.6875C130.994 10.6875 132.067 10.8111 133.133 10.9346C134.46 11.0907 134.7 11.2728 136.215 10.8826C136.703 10.759 137.1 11.0647 137.1 11.5654V16.3451C137.1 16.5532 136.976 16.7548 136.775 16.8198C136.489 16.9174 136.209 16.7418 136.144 16.4752C135.611 14.2511 133.394 12.6319 130.754 12.5864C129.304 12.5604 127.574 13.1716 127.431 14.4852C126.95 18.9073 138.179 16.9174 138.179 24.643C138.179 29.234 134.239 31.8937 129.544 31.8937C127.204 31.8937 126.04 31.2889 124.232 31.2889C123.588 31.2889 122.97 31.3799 122.366 31.5295C121.807 31.6596 121.273 31.2434 121.273 30.6711V23.882C121.273 23.6805 121.384 23.4918 121.566 23.4204C121.839 23.3097 122.112 23.4529 122.197 23.6999C123.413 27.1075 125.441 30.1248 129.538 30.1248C130.116 30.1248 132.288 29.9558 132.464 28.4601L132.483 28.4471Z" fill="currentColor"></path><path d="M86.4673 9.48252C88.8014 9.48252 90.7196 7.56415 90.7196 5.22958C90.7196 2.89501 88.8014 1.03516 86.4673 1.03516C84.133 1.03516 82.2148 2.95353 82.2148 5.22958C82.2148 7.50563 84.133 9.48252 86.4673 9.48252Z" fill="currentColor"></path><path d="M113.831 9.48252C116.165 9.48252 118.083 7.56415 118.083 5.22958C118.083 2.89501 116.165 1.03516 113.831 1.03516C111.496 1.03516 109.578 2.95353 109.578 5.22958C109.578 7.50563 111.496 9.48252 113.831 9.48252Z" fill="currentColor"></path><path d="M52.4958 12.7028C49.6414 10.2122 45.9937 11.7469 44.2119 14.0294C44.1274 14.14 43.8349 14.1465 43.8349 13.8539V13.1906C43.8349 12.1891 43.0221 11.3047 42.0207 11.3047C39.6019 11.3047 35.4926 11.3047 34.2442 11.3047C33.9189 11.3047 33.6523 11.5713 33.6523 11.8965V11.929C33.6523 12.1696 33.8019 12.3842 34.0296 12.4817C35.3496 13.0475 36.0517 14.27 36.0517 15.7007V26.6907C36.0517 28.3816 35.5705 29.331 34.2702 30.2349C34.1141 30.3454 34.0165 30.5275 34.0165 30.7225V30.8527C34.0165 31.1778 34.2831 31.4444 34.6082 31.4444H45.5254C45.8505 31.4444 46.117 31.1778 46.117 30.8527V30.7616C46.117 30.547 46 30.352 45.8179 30.2413C44.42 29.4349 43.8414 28.427 43.8414 26.6907V19.609L43.8609 18.1524C43.8609 17.8727 43.8934 17.6126 43.9388 17.359C44.1729 16.0519 44.8883 15.252 45.0963 15.0374C45.4018 14.7253 45.935 15.0049 45.857 15.4341C45.6164 16.7412 45.9937 18.1393 46.9949 19.1408C48.5814 20.7276 51.0913 20.5649 52.7169 18.9391C53.4191 18.2369 53.7963 17.3395 53.9002 16.416C54.1277 15.1349 53.5817 13.6458 52.5088 12.7028H52.4958Z" fill="currentColor"></path><path d="M12.3784 24.5425C12.3784 27.2412 11.2405 29.023 9.47188 30.2195C9.30283 30.3366 9.1988 30.5318 9.1988 30.7398V30.8047C9.1988 31.156 9.48489 31.4355 9.82951 31.4355H24.44C24.7911 31.4355 25.0707 31.1495 25.0707 30.8047C25.0707 30.5643 24.9341 30.3431 24.7129 30.239C22.3332 29.075 21.3514 27.098 21.3514 24.4709V17.3306C21.3514 17.1161 21.5269 16.947 21.735 16.947H23.1914C25.929 16.947 27.535 21.0504 28.2567 23.4044C28.3218 23.6125 28.5168 23.7555 28.7379 23.7555C29.0174 23.7555 29.2451 23.528 29.2451 23.2483V8.9613C29.2451 8.66867 29.0045 8.42807 28.7119 8.42807C28.5039 8.42807 28.3087 8.55161 28.2242 8.7402C27.2815 10.9122 25.4607 15.0351 22.8923 15.0351H21.735C21.5204 15.0351 21.3514 14.8595 21.3514 14.6514V5.51472C21.3514 4.5718 21.4294 3.84996 21.904 3.32322C22.7753 2.36078 23.7833 2.3803 24.4789 2.3803C29.154 2.3803 31.9824 6.29508 33.6535 9.45553C33.7251 9.59209 33.8615 9.68314 34.0176 9.68314C34.2453 9.68314 34.4274 9.50106 34.4274 9.27345V2.29575C34.4274 1.12522 33.4779 0.175781 32.3075 0.175781H8.68511C5.77865 0.175781 4.31565 0.962642 3.32732 1.67147C2.00087 2.63391 0.888993 4.05156 0.557382 5.64479C-0.183869 9.14989 1.22711 13.7475 5.86967 14.0661C7.31966 14.1637 8.77615 13.4874 9.5369 12.4014C10.1286 11.6666 10.4992 10.7496 10.4992 9.74166C10.4992 7.40709 8.80866 5.48872 6.53289 5.48872C5.0894 5.48872 3.82147 6.22355 3.05422 7.33556C2.80064 7.69972 2.21545 7.51764 2.22195 7.06893C2.22195 7.06893 2.22195 6.95838 2.23494 6.84133C2.54055 4.35719 4.62125 2.41281 7.18312 2.41281C10.2392 2.41281 12.3589 4.64333 12.3589 7.3941L12.3849 24.5425H12.3784Z" fill="currentColor"></path><path d="M117.841 26.6842V13.1256C117.841 12.1111 117.016 11.2982 116.001 11.3047H108.381C108.043 11.3047 107.77 11.5779 107.77 11.916C107.77 12.1566 107.913 12.3842 108.134 12.4818C109.454 13.054 110.162 14.3351 110.162 15.8243V26.6908C110.162 28.3685 109.694 29.3116 108.413 30.209C108.231 30.3324 108.121 30.5405 108.121 30.7616C108.121 31.1388 108.42 31.4379 108.797 31.4379H119.07C119.441 31.4379 119.747 31.1388 119.747 30.7616C119.747 30.5405 119.636 30.326 119.447 30.2024C118.192 29.3439 117.828 28.6808 117.828 27.0615" fill="currentColor"></path></g></svg>
                       